<?xml version="1.0" encoding="UTF-8"?>
<svg id="Layer_1" data-name="Layer 1" xmlns="http://www.w3.org/2000/svg" version="1.1" viewBox="0 0 254.96 210.92">
  <defs>
    <style>
      .cls-1 {
        fill: #000;
        stroke-width: 0px;
      }
    </style>
  </defs>
  <path class="cls-1" d="M28.03,49.17h-.25c-.57,0-1.08-.06-1.55-.19-.47-.13-1.11-.36-1.94-.69-.22-.11-.47-.22-.74-.33-3.2-1.12-5.1-3.04-5.68-5.76l-.03-.27c0-.88.66-1.69,1.98-2.44,1.96-1.23,6.38-2.87,13.26-4.94,8.82-2.69,19.98-5.39,33.48-8.1,9.61-1.87,19.92-3.43,30.96-4.68,11.03-1.25,21.96-1.94,32.79-2.07,5.53.04,10.82.34,15.89.91,1.61.18,2.75.81,3.43,1.87.16.29.25.63.25,1.02,0,.46-.12.99-.36,1.59-.24.24-.56.36-.96.36-.66,0-1.78-.36-3.38-1.07-.92-.38-1.89-.75-2.94-1.1-5.78-.49-11.76-.74-17.92-.74-18.3,0-37.38,1.95-57.25,5.85-10.61,2.12-21.57,4.92-32.88,8.4-3.26,1.01-7.27,2.51-12.05,4.5-.64.26-1.05.58-1.24.96-.04.09-.05.17-.05.25,0,.31.22.65.66,1s.95.56,1.54.62c.29.02.59.03.91.03s.63-.01.95-.04c.32-.03.64-.04.97-.04.92,0,1.89.15,2.94.44,1.32.51,1.98,1.24,1.98,2.2,0,.55-.24,1.09-.71,1.62-.48.53-1.16.82-2.06.88ZM75.89,191.22h-.41c-4.87-.44-8.83-4.76-11.88-12.95-2.95-7.79-4.9-18.64-5.87-32.55-.29-4.92-.44-10.15-.44-15.67,0-7.72.28-16.04.85-24.95-1.9-.18-3.63-.27-5.19-.27-1.3,0-2.81.1-4.53.3-3,.35-5.79,1.23-8.37,2.63-1.15.59-2.04.88-2.66.88s-1.09-.24-1.4-.71c-.22-.31-.33-.66-.33-1.04,0-.42.13-.89.38-1.4.57-.9,1.76-1.79,3.57-2.68,1.81-.89,3.65-1.57,5.52-2.04,3.9-1.61,7.47-3.05,10.73-4.31,1.01-.38,1.99-.77,2.94-1.15,1.9-20.86,5.1-42.05,9.61-63.59.22-.64.72-.96,1.51-.96,1.04,0,1.66.56,1.84,1.67.49,3.24.74,5.7.74,7.38,0,1.37-.23,2.49-.69,3.36-.46.87-1.26,1.72-2.42,2.54-1.41,7.87-2.77,16.18-4.09,24.95-1.32,8.76-2.31,16.56-2.99,23.38,7.14-2.58,14.52-4.96,22.15-7.14,9.55-2.65,18.17-4.92,25.85-6.81,7.68-1.88,13.69-3.02,18.03-3.4.75,0,1.29.21,1.62.63.22.29.33.59.33.88,0,.16-.05.4-.15.71-.1.31-.52.52-1.25.63-.16.02-.35.03-.55.03-.37,0-.79-.04-1.28-.11-.48-.07-.98-.11-1.5-.11l-.6.03c-5.45.48-10.79,1.34-16.03,2.58-5.23,1.24-10.79,2.74-16.69,4.47-2.78.79-5.69,1.6-8.74,2.44-3.05.84-6.06,1.79-9.03,2.85-2.97,1.06-5.88,2.14-8.71,3.24-1.24.48-2.47.93-3.68,1.37-.13,1.5-.22,2.94-.27,4.31-.04,1.02-.09,2.06-.16,3.1,11.47,3.99,19.85,11.47,25.14,22.45,3.4,7.54,5.1,16.69,5.1,27.47,0,4.39-.31,8.71-.93,12.95-.97,6.86-2.69,12.61-5.16,17.23-2.65,4.9-5.96,7.35-9.91,7.35ZM58.24,103.02l.14-2.39c.04-1.01.1-2.04.19-3.1-3.97,1.61-8.05,3.44-12.24,5.49,1.57-.35,3.39-.52,5.46-.52h1.89c1.17,0,2.69.17,4.56.52ZM76.49,188.97c1.48,0,2.75-.38,3.81-1.15.62-.49,1.26-1.2,1.92-2.11,1.81-2.49,3.49-5.85,5.02-10.1,2.05-5.69,3.07-12.64,3.07-20.86,0-3-.25-7.09-.74-12.28s-1.91-10.37-4.25-15.55c-1.88-3.95-4.15-7.33-6.81-10.14-2.65-2.81-5.45-5.1-8.38-6.86-2.94-1.77-5.8-3.08-8.6-3.94-.53,8.65-.8,16.73-.8,24.23,0,5.38.14,10.46.41,15.26.88,13.76,2.66,24.31,5.35,31.64,1.48,3.84,3.05,6.77,4.72,8.78,1.88,2.05,3.64,3.07,5.27,3.07Z"/>
  <path class="cls-1" d="M127.32,125.63c-.77,0-1.49-.22-2.17-.66-1.65-1.08-2.85-3.07-3.62-5.98-.35-1.46-.52-2.96-.52-4.5,0-2.82.57-6.15,1.7-9.99-1.02-1.59-1.54-3.25-1.54-4.97,0-2.25.82-4.06,2.47-5.43,1.57-1.26,3.3-1.89,5.19-1.89s3.66.92,5.05,2.74c.9,1.15,1.55,2.51,1.98,4.06.27,1.34.41,3.17.41,5.49,0,1.45-.05,2.8-.14,4.06,1.08.16,2.16.25,3.24.25,1.66,0,3.64-.24,5.91-.73,2.28-.48,4.37-1.4,6.27-2.76.29-.22.57-.52.82-.91.55-2.93,1.33-5.34,2.33-7.24.33-.51.61-.77.85-.77.2,0,.38.16.55.47.37-.07.72-.11,1.07-.11,1.63,0,3.07.85,4.32,2.55,1.25,1.7,2.17,4.24,2.76,7.63,2.96,1.04,6.04,1.56,9.22,1.56,1.01,0,2.64-.12,4.9-.36,2.26-.24,4.51-1.28,6.76-3.13.33-.24.61-.36.85-.36.4,0,.61.25.63.74,0,.29-.13.6-.38.93-3.2,2.58-7.4,3.87-12.6,3.87-3.37,0-6.4-.47-9.11-1.4.16,1.3.25,2.56.25,3.79,0,2.67-.37,4.9-1.1,6.7-.55,1.37-1.23,2.38-2.03,3.02-.53.4-1.09.75-1.67,1.04-.59.29-1.24.44-1.98.44h-.14c-1.52-.15-2.71-.76-3.57-1.84-.93-.99-1.64-2.28-2.11-3.87-.38-1.65-.58-3.49-.58-5.54,0-1.46.1-3.03.3-4.69-4.32,1.96-9.17,2.94-14.54,2.94l-1.34-.03c-.22,1.77-.51,3.48-.88,5.1-.82,3.64-2.15,6.34-3.98,8.1-1.21,1.12-2.49,1.67-3.84,1.67ZM128.5,122.75c1.19,0,2.24-1.03,3.16-3.1.93-2.01,1.66-4.98,2.17-8.89-3.31-.38-6.08-1.39-8.32-3.02-.59,2.63-.88,4.95-.88,6.94,0,1.34.14,2.52.41,3.57.59,2.03,1.34,3.4,2.28,4.12.33.26.72.38,1.18.38ZM134.01,108.48c.04-.93.06-1.92.06-2.96,0-.51,0-1.3-.01-2.37,0-1.07-.14-2.15-.4-3.25-.18-.82-.58-1.76-1.18-2.8-.95-1.65-2.16-2.47-3.62-2.47-.79,0-1.61.38-2.47,1.15-.59.55-1.02,1.37-1.32,2.47-.16.51-.25,1.04-.25,1.59,0,.6.1,1.23.3,1.87.79,2.2,1.9,3.76,3.35,4.68,1.45.92,3.29,1.62,5.54,2.1ZM159.18,121.32c.68,0,1.26-.27,1.76-.82.49-.55.86-1.21,1.1-1.98.64-1.99.96-3.99.96-5.98,0-1.1-.15-2.58-.44-4.45-3.33-1.39-5.58-3.23-6.75-5.52-.51,2.84-.77,5.65-.77,8.45,0,2.23.22,4.36.66,6.39.55,1.7,1.31,2.89,2.28,3.57.33.22.73.33,1.21.33ZM162.17,106.03c-.48-2.07-1.11-3.81-1.91-5.21-.8-1.41-1.72-2.14-2.76-2.2-.18,0-.38.04-.6.11-.07.35-.11.7-.11,1.04,0,1.39.6,2.66,1.81,3.81.91.92,2.1,1.73,3.57,2.44Z"/>
  <path class="cls-1" d="M231.41,151.48h-.25c-.84,0-1.58-.33-2.22-.99-1.08-1.87-1.87-3.64-2.36-5.31-.49-1.67-1.02-3.5-1.56-5.47-.27-1.43-.59-2.82-.93-4.17-.73-3.75-1.27-6.97-1.62-9.66-.35-2.51-.66-6.13-.93-10.87-.24-4.19-.36-8-.36-11.44,0-4.76.34-11.63,1.02-20.61v-.19c0-.16-.02-.25-.05-.25s-.11.08-.22.25c-5.84,10.32-11.86,18.7-18.08,25.14-3.66,3.79-7.72,6.41-12.18,7.88-.66.2-1.31.3-1.95.3-.44,0-1.02-.08-1.76-.25-.73-.16-1.45-.65-2.17-1.45-.95-1.19-1.43-2.63-1.43-4.34,0-.73.09-1.52.27-2.36.8-3.27,2.74-6.43,5.82-9.47,1.37-1.37,2.81-2.55,4.31-3.54,2.4-1.55,4.86-2.33,7.38-2.33,2.82,0,4.87,1.04,6.15,3.13.31.49.47.99.47,1.48,0,.44-.13.87-.38,1.29-.44.59-.97.88-1.59.88-.04,0-.23,0-.58-.01-.35,0-.81-.28-1.4-.81-.33-.33-.61-.72-.85-1.18-.44-.75-.84-1.18-1.21-1.29-.22-.02-.45-.03-.69-.03-.6,0-1.27.07-2,.22-2.14.57-4.53,2.11-7.16,4.64-2.56,2.58-4.2,5.19-4.91,7.82-.13.59-.19,1.1-.19,1.54,0,.97.21,1.67.63,2.11.71.86,1.61,1.29,2.69,1.29.46,0,.94-.07,1.45-.22,2.89-.93,5.38-2.2,7.48-3.81,2.09-1.61,4.05-3.56,5.86-5.86,1.81-2.3,3.74-4.95,5.79-7.97l1.98-2.83c1.68-2.42,3.25-5.01,4.71-7.78,1.45-2.77,2.92-5.72,4.4-8.85.73-7.5,1.78-14.89,3.16-22.17.97-4.88,1.76-8.47,2.37-10.76.61-2.29,1.3-4.43,2.07-6.42.79-2.18,1.49-3.81,2.11-4.91.95-1.61,1.83-2.42,2.63-2.42.15,0,.41.09.8.26.38.17.69,1.11.91,2.81.2,1.92.3,3.73.3,5.43,0,1.23-.09,2.77-.26,4.64-.17,1.87-.72,4.62-1.63,8.26-1.02,4.17-2.17,7.82-3.44,10.94-1.27,3.12-2.7,6.3-4.3,9.54l-.88,1.84-.52,4.99c-1.3,11.6-1.95,20.66-1.95,27.17,0,3,.09,6.11.27,9.33.24,4.46.48,7.91.73,10.33.25,2.42.62,4.89,1.11,7.4l.47,2.5c1.08,4.81,2.49,8.23,4.23,10.26l1.78,2.06c.59.82.88,1.52.88,2.09,0,.38-.12.83-.37,1.34-.25.51-.86.8-1.82.88ZM227.59,66.68s.16-.22.36-.6c1.21-2.4,2.29-5.02,3.24-7.88,2.8-8.47,4.2-15.29,4.2-20.47,0-1.41-.15-2.11-.44-2.11-.15,0-.33.15-.55.44-.35.7-.61,1.32-.8,1.87-.73,1.88-1.39,3.92-1.98,6.12-1.32,4.96-2.57,11.47-3.76,19.54-.11.84-.22,1.61-.33,2.31-.04.27-.06.48-.06.6s.02.19.06.19h.05Z"/>
</svg>