<?xml version="1.0" encoding="UTF-8"?>
<svg id="Layer_1" data-name="Layer 1" xmlns="http://www.w3.org/2000/svg" version="1.1" viewBox="0 0 254.96 210.92">
  <defs>
    <style>
      .cls-1 {
        fill: #000;
        stroke-width: 0px;
      }
    </style>
  </defs>
  <path class="cls-1" d="M81.14,188.72h-.08c-.82,0-1.25-.55-1.29-1.65l4.53-77.58c-3.05-17.34-8.83-29.16-17.32-35.46-8.16-5.71-18.38-8.62-30.65-8.73-1.21,0-4.27.13-9.19.38-3.97.2-10.75,1.82-20.34,4.86-.4.15-.79.22-1.15.22-.42,0-.75-.12-.99-.36-.31-.31-.47-.7-.47-1.15,0-.18.05-.47.15-.86.1-.39.52-.75,1.25-1.06,2.65-1.06,5.6-1.98,8.84-2.74,2.84-.68,5.58-1.49,8.23-2.44,19.19-7.15,41.17-13.79,65.94-19.9l.3-7.05c-.18-.37-.42-.67-.71-.91-.59-.53-.88-1.12-.88-1.78,0-.37.1-.91.3-1.62s.79-1.93,1.76-3.65c.75-1.17,1.44-1.77,2.06-1.78.13,0,.25.02.36.05.66.2,1.01.73,1.04,1.59l-.71,14.27c13.19-3.26,26.61-6.25,40.25-8.97,13.64-2.73,27.17-5,40.6-6.82,13.43-1.82,26.35-2.95,38.78-3.39.93.11,1.41.38,1.43.82,0,.02,0,.16-.03.43-.02.27-.3.71-.85,1.33-.71.84-1.52,1.26-2.41,1.26-.75,0-1.49-.33-2.22-.99-18.31.9-37.39,2.96-57.22,6.19-19.83,3.23-39.34,7.21-58.54,11.95l-4.12,63.8c.71,6.02,1.07,12.42,1.07,19.21,0,2.63-.05,5.57-.14,8.81,0,7.68-1.2,20.82-3.59,39.41-.57,4.21-1.3,8.4-2.2,12.57-.35,1.12-.94,1.69-1.78,1.73ZM84.74,101.4l3.68-57.33c-23.42,5.93-44.56,12.32-63.42,19.18,2.85-.31,5.68-.47,8.48-.47,5.84,0,12.07.96,18.7,2.87,6.63,1.91,11.89,4.4,15.77,7.45,4.66,3.51,8.34,8.02,11.03,13.53,2.69,5.51,4.61,10.43,5.76,14.76ZM85.12,154.42c1.15-7.68,1.73-16.18,1.73-25.49,0-1.13,0-2.26-.03-3.38l-1.7,28.87Z"/>
  <path class="cls-1" d="M140.97,130.27c-2.62-.13-4.52-1.52-5.71-4.17-.64-1.74-.96-3.7-.96-5.87,0-.16.01-.89.04-2.18.03-1.29.1-2.31.22-3.07.12-.76.29-1.49.51-2.18.18-.6.27-.98.27-1.12,0-.06-.02-.08-.05-.08s-.11.08-.22.25c-.38.66-1,1.56-1.84,2.72-.38.51-.89,1.21-1.51,2.09-5.16,7.45-9.93,11.17-14.32,11.17-1.45,0-2.77-.38-3.98-1.15-1.21-.77-2.03-1.87-2.47-3.29-.16-.55-.25-1.13-.25-1.73,0-.97.27-2.18.81-3.62.54-1.45,1.79-3.18,3.75-5.21,1.63-1.65,3.46-2.96,5.49-3.95,3.29-1.59,6.3-2.39,9.03-2.39,1.81,0,3.19.38,4.14,1.15.27.31.48.76.63,1.34,0-.11.39-.74,1.18-1.89.37-.51.61-.8.74-.85.31-.37.77-.55,1.37-.55.28.02.55.05.82.11.51.13.77.69.77,1.67s-.28,3.03-.85,6.07c-.46,2.2-.69,4.72-.69,7.57,0,.88.06,1.66.19,2.33.57,3.18,1.99,4.77,4.25,4.77,2.91,0,6.31-1.94,10.21-5.82,1.87-2.16,3.2-3.84,4.01-5.05.22-.24.48-.36.8-.36.57,0,.85.19.85.58,0,.42-.23.86-.69,1.32-4.17,5.36-8.47,8.94-12.9,10.73-1.12.4-2.33.63-3.65.69ZM118.11,125.55c1.21-.07,2.33-.39,3.36-.96,1.03-.57,2.08-1.3,3.14-2.2,3.11-2.65,5.93-6.19,8.45-10.62l.55-.91c-.6.18-1.1.27-1.48.27-.07,0-.22-.01-.44-.04s-.44-.14-.64-.33c-.21-.19-.4-.43-.56-.73s-.4-.56-.7-.8c-.3-.24-.75-.36-1.36-.36h-.14c-2.91.66-6.11,2.74-9.6,6.23-2.41,2.42-3.62,4.77-3.62,7.05,0,1.1.32,1.98.96,2.63.49.49,1.19.74,2.09.74Z"/>
  <path class="cls-1" d="M171.32,143.71c-1.06,0-1.92-.31-2.58-.93-.42-.4-.69-.91-.82-1.51-.07-.46-.11-.92-.11-1.37,0-1.99.61-4,1.84-6.01,1.04-1.52,1.99-2.7,2.85-3.54l-.9-.44c-.6-.27-1.37-.6-2.31-.99-2.27-.84-4.45-1.85-6.53-3.02-4.21-2.34-6.31-5.78-6.31-10.32,0-.7.05-1.42.14-2.17.44-2.18,1.27-4,2.5-5.46,1.23-1.46,2.64-2.56,4.25-3.29s3.21-1.1,4.8-1.1c1.57.02,3.17.41,4.8,1.18,1.63.77,2.95,1.88,3.98,3.32.66,1.08.99,2.53.99,4.34,0,.04,0,.53-.01,1.48,0,.95-.45,1.88-1.33,2.8l-.3.14c-.2.09-.45.16-.74.22-.29.06-.58.08-.85.08-.07,0-.22,0-.45-.03-.23-.02-.53-.13-.89-.34-.37-.21-.7-.56-.99-1.06-.24-.48-.36-.94-.36-1.4s.15-.99.44-1.66c.29-.67.66-1.3,1.11-1.89s.67-1.15.67-1.66c0-.22-.05-.54-.14-.97-.09-.43-.5-.87-1.23-1.33-.73-.46-1.88-.69-3.46-.69-1.15,0-2.38.33-3.69.99s-2.5,1.58-3.58,2.77c-1.57,1.77-2.36,3.89-2.36,6.34,0,1.35.33,2.67,1,3.95s1.82,2.46,3.47,3.53,3.52,2.01,5.63,2.81c1.54.6,3.07,1.26,4.61,1.98,6.38-4.98,12.31-8.7,17.78-11.17.11-.06.22-.08.33-.08.15,0,.3.06.47.19.24.18.36.43.36.74,0,.18-.07.34-.22.47-6.59,2.85-12.3,6.4-17.15,10.65l.08.03c1.98,1.28,2.96,3.22,2.96,5.82,0,.24-.03.72-.1,1.44-.06.72-.32,1.53-.78,2.43-.62,1.21-1.4,2.18-2.33,2.91-1.52,1.23-3.03,1.84-4.53,1.84ZM170.94,140.8c.33,0,.77-.15,1.32-.44.55-.29,1.13-.74,1.76-1.33.62-.59,1.07-1.12,1.33-1.59.26-.47.51-1.06.73-1.77.09-.35.14-.7.14-1.04,0-.4-.09-.91-.26-1.51-.17-.6-.8-1.25-1.88-1.95-1.54,1.54-2.58,2.74-3.13,3.62-.57.95-.95,2.05-1.15,3.29-.05.33-.08.62-.08.88,0,.77.21,1.33.63,1.67.18.11.38.16.6.16Z"/>
  <path class="cls-1" d="M198.76,154.64c-.33,0-.92-.11-1.78-.32-.86-.21-1.62-1.33-2.28-3.36-.7-2.45-1.3-5.89-1.81-10.32-.62-5.2-.93-11.48-.93-18.85,0-3.7.05-7.57.14-11.64.24-9.95,1.12-20.15,2.66-30.6.15-.79.3-2.25.47-4.39-15,1.24-24.55,2.47-28.65,3.68l.36.3c.15.2.22.38.22.52,0,.24-.1.42-.3.55-.6.42-1.63.63-3.07.63-.28,0-.79-.02-1.55-.07s-1.63-.24-2.61-.59c-.98-.35-1.52-.8-1.63-1.37,0-.51.45-.96,1.34-1.34,1.52-.64,3.61-1.12,6.28-1.45,9.35-1.15,19.29-2.06,29.83-2.72.86-7.17,1.66-12.61,2.41-16.33.2-1.24.63-2.5,1.29-3.77s1.36-1.91,2.11-1.91c.53,0,1.03.55,1.51,1.65.13.33.25.71.36,1.15.18.84.28,2.23.28,4.17,0,4.81-.66,9.7-1.98,14.65,5.62-.29,13.87-.68,24.75-1.15,7.12-.35,14.15-.58,21.1-.69.66.24.99.55.99.93,0,.27-.15.59-.44.96l-.44.44c-3.04-.09-6.19-.14-9.47-.14-10.94,0-23.27.48-36.99,1.45v.03l-.03.06c-.49,1.48-1.05,2.85-1.67,4.12-.4.84-.8,1.76-1.21,2.74-.18,1.48-.37,2.83-.55,4.03-.33,2.18-.64,4.81-.93,7.9s-.57,7.86-.82,14.3c-.24,5.53-.36,10.57-.36,15.12,0,6.31.23,11.7.69,16.16.37,3.62.89,7.14,1.56,10.54.11.59.3,1.21.58,1.87.35.84.78,1.26,1.29,1.26.55,0,1.44-.63,2.66-1.89,1.88-1.9,4.73-6.5,8.53-13.78,2.78-5.34,5.4-11.96,7.85-19.84.11-.2.29-.3.55-.3s.48.06.69.19c.2.13.3.28.3.47v.11c-4.04,13.06-9.07,23.81-15.09,32.25-.91,1.32-1.97,2.45-3.16,3.4-1.01.79-2.02,1.18-3.05,1.18Z"/>
  <path class="cls-1" d="M225.38,134.96c-2.47,0-4.41-.84-5.82-2.52-1.37-1.94-2.06-4.24-2.06-6.89l.03-.96c.09-3.4.59-6.43,1.48-9.08,1.43-4.28,3.43-7.25,6.01-8.92,1.02-.71,2.19-1.07,3.48-1.07,1.34.22,2.28.78,2.83,1.67.55.81.82,1.61.82,2.42-.15,2.09-.9,3.7-2.26,4.84-1.36,1.14-2.63,1.83-3.8,2.07-.62.13-1.21.19-1.76.19-.2,0-.75-.06-1.65-.19-.22,0-.36.13-.41.38-.64,1.98-1.07,4.29-1.29,6.94v.85c-.04.48-.06.93-.06,1.37,0,1.96.34,3.59,1.02,4.91.8,1.13,2.03,1.7,3.68,1.7l.93-.03c3.42,0,8.38-2.64,14.87-7.93,5.09-4.3,7.77-6.68,8.04-7.14.15-.13.3-.19.47-.19.29,0,.51.13.66.38.11.15.16.3.16.47,0,.37-.24.77-.71,1.21l-7.08,6.37c-3.35,2.76-6.23,4.89-8.66,6.37-2.43,1.48-5.08,2.39-7.97,2.72-.31.04-.63.06-.96.06ZM224.7,115.01c1.43,0,2.74-.61,3.92-1.84.95-.95,1.43-2,1.43-3.16-.06-.91-.46-1.37-1.21-1.37-.6,0-1.24.27-1.92.82-.59.51-1.2,1.19-1.85,2.03-.65.84-1.2,1.68-1.66,2.52-.09.18-.14.34-.14.47,0,.09.04.18.11.27.07.09.25.16.52.19.27.04.54.05.8.05Z"/>
</svg>