<?xml version="1.0" encoding="UTF-8"?>
<svg id="Layer_1" data-name="Layer 1" xmlns="http://www.w3.org/2000/svg" version="1.1" viewBox="0 0 254.96 210.92">
  <defs>
    <style>
      .cls-1 {
        fill: #000;
        stroke-width: 0px;
      }
    </style>
  </defs>
  <path class="cls-1" d="M54.92,188.68c-.7,0-1.43-.38-2.2-1.15-1.21-1.59-2.11-3.54-2.72-5.85-.95-3.53-1.43-8.28-1.43-14.24,0-8.8,1.18-21.19,3.54-37.16,1.35-9.26,2.95-19.44,4.77-30.54,1.52-9.33,2.85-18.3,4.01-26.92,1.54-11.49,2.31-20.78,2.31-27.88,0-4.89-.38-8.95-1.15-12.19-.53-2.12-1.28-4.02-2.24-5.69-.96-1.67-1.98-2.7-3.06-3.09-.44-.15-.92-.22-1.45-.22-.95,0-2.24.28-3.87.84-1.63.56-3.65,1.91-6.07,4.05-2.41,2.25-4.85,5.18-7.3,8.78s-4.77,7.56-6.97,11.86c-3.51,6.82-6.22,14.68-8.12,23.57-1.56,7.28-2.33,14.74-2.33,22.37,0,1.7.04,3.4.11,5.1,1.85,2.89,2.94,5.66,3.27,8.31.11.93.16,1.8.16,2.61,0,2.62-.55,4.46-1.65,5.52-.51.51-1.06.77-1.65.77-.55,0-1-.45-1.34-1.34-1.59-6.97-2.39-13.8-2.39-20.5,0-1.35.11-4.36.34-9.03.23-4.66,1.36-10.58,3.4-17.74,2.04-7.16,4.6-13.7,7.67-19.61,4.68-8.89,9.69-15.77,15.01-20.64,4.59-4.28,8.73-6.42,12.4-6.42.8,0,1.59.11,2.36.33,1.85.59,3.35,1.7,4.5,3.35,2.53,3.66,3.79,9.97,3.79,18.94,0,1.52-.04,3.1-.11,4.75-.57,14.67-2.34,31.59-5.32,50.74-1.28,7.79-2.61,15.45-3.98,22.97-1.96,10.41-3.58,20.16-4.86,29.25-1.02,6.77-1.54,11.97-1.54,15.62,0,1.83.11,3.65.33,5.46.42,2.95.95,5.07,1.58,6.38.63,1.31,1.26,2.28,1.88,2.92.46.51.85,1.09,1.18,1.73.38.9.58,1.66.58,2.28,0,1.13-.48,1.71-1.45,1.73Z"/>
  <path class="cls-1" d="M76.05,134.07c-.57,0-1.03-.16-1.4-.47-.51-.42-.87-.98-1.07-1.67-.35-1.21-.52-2.9-.52-5.08,0-5.25.91-11.03,2.72-17.34-.7-.93-1.04-1.86-1.04-2.77,0-1.87,1.56-4.02,4.69-6.45.79-.46,1.42-.69,1.89-.69.29,0,.53.09.71.27.37.35.55.8.55,1.34,0,.2-.03.41-.08.63-1.63,3.24-2.9,6.59-3.81,10.04-1.45,5.42-2.17,10.36-2.17,14.85,0,.64.02,1.23.05,1.76.16.73.38,1.1.63,1.1.07,0,.22-.08.44-.25.44-.35,1.14-1.77,2.11-4.25.37-.88.66-1.55.88-2,1.72-3.64,3.23-6.33,4.53-8.07,1.13-1.48,2.24-2.22,3.32-2.22.7,0,1.27.28,1.73.85.58.71.98,1.5,1.18,2.36.36,1.41.64,2.95.82,4.64l.16,1.1c.6,4.89,1.77,7.87,3.49,8.95.71.33,1.4.49,2.06.49.9,0,2.04-.34,3.43-1.02,1.66-.77,3.38-1.82,5.13-3.16,2.82-2.38,5.16-4.82,7.03-7.33.37-.26.68-.38.93-.38.16,0,.33.05.48.15.15.1.23.25.23.45,0,.22-.13.51-.38.88-5.16,5.78-9.63,9.54-13.42,11.28-1.83.8-3.42,1.21-4.77,1.21-.66,0-1.3-.09-1.92-.27-2.01-.71-3.44-2.19-4.28-4.42-.71-2.07-1.18-4.19-1.4-6.37-.33-2.18-.62-3.92-.88-5.24-.16-.73-.46-1.1-.88-1.1-.35,0-.77.34-1.26,1.02-1.17,1.65-2.46,3.97-3.87,6.97-.97,2.03-1.82,4.01-2.55,5.93l-.33.8c-.53,1.39-1.16,2.39-1.89,2.99-.37.33-.79.49-1.26.49Z"/>
  <path class="cls-1" d="M159.95,165.9h-.25c-.84,0-1.58-.33-2.22-.99-1.08-1.87-1.87-3.64-2.36-5.31-.49-1.67-1.02-3.5-1.56-5.47-.27-1.43-.59-2.82-.93-4.17-.73-3.75-1.27-6.97-1.62-9.66-.35-2.51-.66-6.13-.93-10.87-.24-4.19-.36-8-.36-11.44,0-4.76.34-11.63,1.02-20.61v-.19c0-.16-.02-.25-.05-.25s-.11.08-.22.25c-5.84,10.32-11.86,18.7-18.08,25.14-3.66,3.79-7.72,6.41-12.18,7.88-.66.2-1.31.3-1.95.3-.44,0-1.02-.08-1.76-.25-.73-.16-1.45-.65-2.17-1.45-.95-1.19-1.43-2.63-1.43-4.34,0-.73.09-1.52.27-2.36.8-3.27,2.74-6.43,5.82-9.47,1.37-1.37,2.81-2.55,4.31-3.54,2.4-1.55,4.86-2.33,7.38-2.33,2.82,0,4.87,1.04,6.15,3.13.31.49.47.99.47,1.48,0,.44-.13.87-.38,1.29-.44.59-.97.88-1.59.88-.04,0-.23,0-.58-.01s-.81-.28-1.4-.81c-.33-.33-.61-.72-.85-1.18-.44-.75-.84-1.18-1.21-1.29-.22-.02-.45-.03-.69-.03-.6,0-1.27.07-2,.22-2.14.57-4.53,2.11-7.16,4.64-2.56,2.58-4.2,5.19-4.91,7.82-.13.59-.19,1.1-.19,1.54,0,.97.21,1.67.63,2.11.71.86,1.61,1.29,2.69,1.29.46,0,.94-.07,1.45-.22,2.89-.93,5.38-2.2,7.48-3.81,2.09-1.61,4.05-3.56,5.86-5.86,1.81-2.3,3.74-4.95,5.79-7.97l1.98-2.83c1.68-2.42,3.25-5.01,4.71-7.78,1.45-2.77,2.92-5.72,4.4-8.85.73-7.5,1.78-14.89,3.16-22.17.97-4.88,1.76-8.47,2.37-10.76s1.3-4.43,2.07-6.42c.79-2.18,1.49-3.81,2.11-4.91.95-1.61,1.83-2.42,2.63-2.42.15,0,.41.09.8.26s.69,1.11.91,2.81c.2,1.92.3,3.73.3,5.43,0,1.23-.09,2.77-.26,4.64-.17,1.87-.72,4.62-1.63,8.26-1.02,4.17-2.17,7.82-3.44,10.94-1.27,3.12-2.7,6.3-4.3,9.54l-.88,1.84-.52,4.99c-1.3,11.6-1.95,20.66-1.95,27.17,0,3,.09,6.11.27,9.33.24,4.46.48,7.91.73,10.33.25,2.42.62,4.89,1.11,7.4l.47,2.5c1.08,4.81,2.49,8.23,4.23,10.26l1.78,2.06c.59.82.88,1.52.88,2.09,0,.38-.12.83-.37,1.34-.25.51-.85.8-1.82.88ZM156.13,81.1s.16-.22.36-.6c1.21-2.4,2.29-5.02,3.24-7.88,2.8-8.47,4.2-15.29,4.2-20.47,0-1.41-.15-2.11-.44-2.11-.15,0-.33.15-.55.44-.35.7-.61,1.32-.8,1.87-.73,1.88-1.39,3.92-1.98,6.12-1.32,4.96-2.57,11.47-3.76,19.54-.11.84-.22,1.61-.33,2.31-.04.27-.06.48-.06.6s.02.19.06.19h.05Z"/>
  <path class="cls-1" d="M172.24,133.77c-.92,0-1.78-.28-2.61-.82-.7-.48-1.24-1.06-1.65-1.76-.79-1.39-1.25-2.96-1.4-4.72-.18-1.52-.28-3.61-.28-6.28,0-1.23.04-2.3.11-3.21-.27-.29-.41-.66-.41-1.1,0-.59.25-1.3.74-2.14.44-.77,1.13-1.15,2.06-1.15.48,0,.95.13,1.43.4.48.27.72.71.74,1.33-.7,4.32-1.04,7.69-1.04,10.13,0,2.18.33,3.85.99,5.01s1.53,1.74,2.61,1.74c1.66,0,4.41-1.11,8.23-3.32,3.17-2.12,5.71-4.22,7.63-6.28l1.43-1.67c.37-.49.74-.74,1.13-.74.33,0,.56.14.69.41.04.09.05.18.05.27,0,.26-.13.56-.38.91l-5.9,5.49c-.97.93-2.36,1.99-4.17,3.18-4.7,2.89-8.03,4.34-9.99,4.34ZM169.91,105.01c-.82,0-1.43-.4-1.81-1.21-.18-.38-.27-.79-.27-1.21,0-1.1.85-2.38,2.55-3.84.4-.31.81-.47,1.23-.47v.33c0,.77.16,1.51.49,2.22.18.38.27.79.27,1.21,0,1.06-.4,1.9-1.21,2.53-.4.29-.82.44-1.26.44Z"/>
  <path class="cls-1" d="M220.57,132.01c-2.62-.13-4.52-1.52-5.71-4.17-.64-1.74-.96-3.69-.96-5.87,0-.16.01-.89.04-2.18.03-1.29.1-2.31.22-3.07.12-.76.29-1.49.51-2.18.18-.6.27-.98.27-1.12,0-.06-.02-.08-.05-.08s-.11.08-.22.25c-.38.66-1,1.56-1.84,2.72-.38.51-.89,1.21-1.51,2.09-5.16,7.45-9.93,11.17-14.32,11.17-1.45,0-2.77-.38-3.98-1.15-1.21-.77-2.03-1.87-2.47-3.29-.16-.55-.25-1.13-.25-1.73,0-.97.27-2.18.81-3.62.54-1.45,1.79-3.18,3.75-5.21,1.63-1.65,3.46-2.96,5.49-3.95,3.29-1.59,6.3-2.39,9.03-2.39,1.81,0,3.19.38,4.14,1.15.27.31.48.76.63,1.34,0-.11.39-.74,1.18-1.89.37-.51.61-.8.74-.85.31-.37.77-.55,1.37-.55.28.02.55.05.82.11.51.13.77.69.77,1.67s-.28,3.03-.85,6.07c-.46,2.2-.69,4.72-.69,7.57,0,.88.06,1.66.19,2.33.57,3.18,1.99,4.77,4.25,4.77,2.91,0,6.31-1.94,10.21-5.82,1.87-2.16,3.2-3.84,4.01-5.05.22-.24.48-.36.8-.36.57,0,.85.19.85.58,0,.42-.23.86-.69,1.32-4.17,5.36-8.47,8.94-12.9,10.73-1.12.4-2.33.63-3.65.69ZM197.71,127.29c1.21-.07,2.33-.39,3.36-.96,1.03-.57,2.08-1.3,3.14-2.2,3.11-2.65,5.93-6.19,8.45-10.62l.55-.91c-.6.18-1.1.28-1.48.28-.07,0-.22-.01-.44-.04-.22-.03-.44-.14-.64-.33-.21-.19-.4-.43-.56-.73s-.4-.56-.7-.8c-.3-.24-.75-.36-1.36-.36h-.14c-2.91.66-6.11,2.74-9.6,6.23-2.41,2.42-3.62,4.77-3.62,7.05,0,1.1.32,1.98.96,2.63.49.49,1.19.74,2.09.74Z"/>
</svg>